HIERARCHY
ROOT Hips
{
	OFFSET 0.000000 71.427986 0.000000
	CHANNELS 6 Xposition Yposition Zposition Xrotation Yrotation Zrotation
	JOINT Pelvis
	{
		OFFSET 0.000000 0.000000 0.000000
		CHANNELS 3 Xrotation Yrotation Zrotation
		JOINT LeftUpLeg
		{
			OFFSET 6.797100 -2.508499 -1.318700
			CHANNELS 3 Xrotation Yrotation Zrotation
			JOINT LeftLeg
			{
				OFFSET 0.069008 -29.241863 0.690200
				CHANNELS 3 Xrotation Yrotation Zrotation
				JOINT LeftFoot
				{
					OFFSET -0.069008 -29.568123 -0.266800
					CHANNELS 3 Xrotation Yrotation Zrotation
					JOINT LeftToeBase
					{
						OFFSET 3.145500 -8.631000 16.059900
						CHANNELS 3 Xrotation Yrotation Zrotation
						End Site
						{
							OFFSET 0.000000 18.501587 0.000000
						}
					}
				}
			}
			JOINT Left_ShortSleeve
			{
				OFFSET 0.265923 -10.480953 1.153800
				CHANNELS 3 Xrotation Yrotation Zrotation
				End Site
				{
					OFFSET 1.725763 19.823879 0.000000
				}
			}
		}
		JOINT RightUpLeg
		{
			OFFSET -6.797100 -2.508499 -1.318700
			CHANNELS 3 Xrotation Yrotation Zrotation
			JOINT RightLeg
			{
				OFFSET -0.082453 -29.241932 0.688000
				CHANNELS 3 Xrotation Yrotation Zrotation
				JOINT RightFoot
				{
					OFFSET 0.082453 -29.568058 -0.264600
					CHANNELS 3 Xrotation Yrotation Zrotation
					JOINT RightToeBase
					{
						OFFSET -3.115300 -8.682800 16.113400
						CHANNELS 3 Xrotation Yrotation Zrotation
						End Site
						{
							OFFSET 0.000000 18.567114 0.000000
						}
					}
				}
			}
			JOINT Right_ShortSleeve
			{
				OFFSET -0.265923 -10.480953 1.153800
				CHANNELS 3 Xrotation Yrotation Zrotation
				End Site
				{
					OFFSET -1.725766 19.823910 0.000000
				}
			}
		}
	}
	JOINT Spine
	{
		OFFSET 0.000000 13.368103 0.470500
		CHANNELS 3 Xrotation Yrotation Zrotation
		JOINT Spine1
		{
			OFFSET 0.147000 13.837402 0.538800
			CHANNELS 3 Xrotation Yrotation Zrotation
			JOINT Spine2
			{
				OFFSET 0.168000 16.242897 -1.435500
				CHANNELS 3 Xrotation Yrotation Zrotation
				JOINT Neck
				{
					OFFSET 0.217200 18.631500 -1.679100
					CHANNELS 3 Xrotation Yrotation Zrotation
					JOINT Head
					{
						OFFSET 0.000000 6.599396 1.385900
						CHANNELS 3 Xrotation Yrotation Zrotation
						JOINT Hat
						{
							OFFSET -0.532200 27.220596 -10.096100
							CHANNELS 3 Xrotation Yrotation Zrotation
							End Site
							{
								OFFSET 0.000000 22.029861 0.000000
							}
						}
						JOINT HairD
						{
							OFFSET -10.777400 17.437393 -1.325900
							CHANNELS 3 Xrotation Yrotation Zrotation
							JOINT HairD1
							{
								OFFSET -3.290299 -11.051193 1.062200
								CHANNELS 3 Xrotation Yrotation Zrotation
								End Site
								{
									OFFSET 0.000000 11.579437 0.000000
								}
							}
						}
						JOINT HairB
						{
							OFFSET -10.777400 17.437393 1.467900
							CHANNELS 3 Xrotation Yrotation Zrotation
							JOINT HairB1
							{
								OFFSET -1.561200 -12.956299 3.590200
								CHANNELS 3 Xrotation Yrotation Zrotation
								End Site
								{
									OFFSET 0.000000 13.534866 0.000000
								}
							}
						}
						JOINT HairA
						{
							OFFSET 9.713100 17.437393 1.467900
							CHANNELS 3 Xrotation Yrotation Zrotation
							JOINT HairA1
							{
								OFFSET 1.561200 -12.956299 3.590200
								CHANNELS 3 Xrotation Yrotation Zrotation
								End Site
								{
									OFFSET 0.000000 13.534866 0.000000
								}
							}
						}
						JOINT HairC
						{
							OFFSET 9.713100 17.437393 -1.325900
							CHANNELS 3 Xrotation Yrotation Zrotation
							JOINT HairC1
							{
								OFFSET 3.290300 -11.051193 1.062200
								CHANNELS 3 Xrotation Yrotation Zrotation
								End Site
								{
									OFFSET 0.000000 11.579437 0.000000
								}
							}
						}
					}
				}
				JOINT LeftShoulder
				{
					OFFSET 5.101800 15.108002 -2.763700
					CHANNELS 3 Xrotation Yrotation Zrotation
					JOINT LeftArm
					{
						OFFSET 9.825497 2.506317 -1.597400
						CHANNELS 3 Xrotation Yrotation Zrotation
						JOINT LeftForeArm
						{
							OFFSET 21.966244 0.000000 0.000000
							CHANNELS 3 Xrotation Yrotation Zrotation
							JOINT LeftHand
							{
								OFFSET 33.879036 0.000000 0.000000
								CHANNELS 3 Xrotation Yrotation Zrotation
								JOINT LeftHandThumb1
								{
									OFFSET 6.715286 -2.359680 3.363841
									CHANNELS 3 Xrotation Yrotation Zrotation
									JOINT LeftHandThumb2
									{
										OFFSET 2.507072 -1.447464 1.447461
										CHANNELS 3 Xrotation Yrotation Zrotation
										JOINT LeftHandThumb3
										{
											OFFSET 2.898338 -1.673355 1.673357
											CHANNELS 3 Xrotation Yrotation Zrotation
											End Site
											{
												OFFSET -0.295959 3.727692 -0.131651
											}
										}
									}
								}
								JOINT LeftHandIndex1
								{
									OFFSET 14.190811 -0.254547 3.840278
									CHANNELS 3 Xrotation Yrotation Zrotation
									JOINT LeftHandIndex2
									{
										OFFSET 3.551727 0.000000 -0.000000
										CHANNELS 3 Xrotation Yrotation Zrotation
										JOINT LeftHandIndex3
										{
											OFFSET 2.894196 0.000000 0.000000
											CHANNELS 3 Xrotation Yrotation Zrotation
											End Site
											{
												OFFSET -1.000603 2.690872 0.366626
											}
										}
									}
								}
								JOINT LeftHandMiddle1
								{
									OFFSET 13.776489 0.000000 0.000000
									CHANNELS 3 Xrotation Yrotation Zrotation
									JOINT LeftHandMiddle2
									{
										OFFSET 3.438232 0.000000 0.000000
										CHANNELS 3 Xrotation Yrotation Zrotation
										JOINT LeftHandMiddle3
										{
											OFFSET 3.691551 0.000000 0.000000
											CHANNELS 3 Xrotation Yrotation Zrotation
											End Site
											{
												OFFSET -1.082298 3.499527 0.457670
											}
										}
									}
								}
								JOINT LeftHandRing1
								{
									OFFSET 13.966164 -0.268127 -3.067488
									CHANNELS 3 Xrotation Yrotation Zrotation
									JOINT LeftHandRing2
									{
										OFFSET 3.162567 0.000000 0.000000
										CHANNELS 3 Xrotation Yrotation Zrotation
										JOINT LeftHandRing3
										{
											OFFSET 3.324348 0.000000 0.000000
											CHANNELS 3 Xrotation Yrotation Zrotation
											End Site
											{
												OFFSET -0.861900 3.184998 0.405154
											}
										}
									}
								}
								JOINT LeftHandPinky1
								{
									OFFSET 13.131393 -0.168503 -5.746925
									CHANNELS 3 Xrotation Yrotation Zrotation
									JOINT LeftHandPinky2
									{
										OFFSET 2.849182 0.000000 0.000000
										CHANNELS 3 Xrotation Yrotation Zrotation
										JOINT LeftHandPinky3
										{
											OFFSET 2.805038 0.000000 0.000000
											CHANNELS 3 Xrotation Yrotation Zrotation
											End Site
											{
												OFFSET -0.882500 2.642609 0.325652
											}
										}
									}
								}
							}
							JOINT Left_Sleeve
							{
								OFFSET 6.592125 -0.646545 0.805568
								CHANNELS 3 Xrotation Yrotation Zrotation
								End Site
								{
									OFFSET -0.000179 20.275787 -0.000000
								}
							}
						}
					}
				}
				JOINT RightShoulder
				{
					OFFSET -5.731700 15.108002 -2.763700
					CHANNELS 3 Xrotation Yrotation Zrotation
					JOINT RightArm
					{
						OFFSET -9.825497 2.506317 -1.597400
						CHANNELS 3 Xrotation Yrotation Zrotation
						JOINT RightForeArm
						{
							OFFSET -21.966242 0.000000 0.000000
							CHANNELS 3 Xrotation Yrotation Zrotation
							JOINT RightHand
							{
								OFFSET -33.879032 0.000000 0.000000
								CHANNELS 3 Xrotation Yrotation Zrotation
								JOINT RightHandThumb1
								{
									OFFSET -6.715286 -2.359680 3.363841
									CHANNELS 3 Xrotation Yrotation Zrotation
									JOINT RightHandThumb2
									{
										OFFSET -2.507072 -1.447464 1.447461
										CHANNELS 3 Xrotation Yrotation Zrotation
										JOINT RightHandThumb3
										{
											OFFSET -2.898338 -1.673355 1.673357
											CHANNELS 3 Xrotation Yrotation Zrotation
											End Site
											{
												OFFSET 0.295959 3.727692 -0.131651
											}
										}
									}
								}
								JOINT RightHandIndex1
								{
									OFFSET -14.190811 -0.254547 3.840278
									CHANNELS 3 Xrotation Yrotation Zrotation
									JOINT RightHandIndex2
									{
										OFFSET -3.551727 0.000000 -0.000000
										CHANNELS 3 Xrotation Yrotation Zrotation
										JOINT RightHandIndex3
										{
											OFFSET -2.894196 0.000000 0.000000
											CHANNELS 3 Xrotation Yrotation Zrotation
											End Site
											{
												OFFSET 1.000603 2.690872 0.366626
											}
										}
									}
								}
								JOINT RightHandMiddle1
								{
									OFFSET -13.776489 0.000000 0.000000
									CHANNELS 3 Xrotation Yrotation Zrotation
									JOINT RightHandMiddle2
									{
										OFFSET -3.438232 0.000000 0.000000
										CHANNELS 3 Xrotation Yrotation Zrotation
										JOINT RightHandMiddle3
										{
											OFFSET -3.691551 0.000000 0.000000
											CHANNELS 3 Xrotation Yrotation Zrotation
											End Site
											{
												OFFSET 1.082298 3.499527 0.457670
											}
										}
									}
								}
								JOINT RightHandRing1
								{
									OFFSET -13.966164 -0.268127 -3.067488
									CHANNELS 3 Xrotation Yrotation Zrotation
									JOINT RightHandRing2
									{
										OFFSET -3.162567 0.000000 0.000000
										CHANNELS 3 Xrotation Yrotation Zrotation
										JOINT RightHandRing3
										{
											OFFSET -3.324348 0.000000 0.000000
											CHANNELS 3 Xrotation Yrotation Zrotation
											End Site
											{
												OFFSET 0.861900 3.184998 0.405154
											}
										}
									}
								}
								JOINT RightHandPinky1
								{
									OFFSET -13.131393 -0.168503 -5.746925
									CHANNELS 3 Xrotation Yrotation Zrotation
									JOINT RightHandPinky2
									{
										OFFSET -2.849182 0.000000 0.000000
										CHANNELS 3 Xrotation Yrotation Zrotation
										JOINT RightHandPinky3
										{
											OFFSET -2.805038 0.000000 0.000000
											CHANNELS 3 Xrotation Yrotation Zrotation
											End Site
											{
												OFFSET 0.882500 2.642609 0.325652
											}
										}
									}
								}
							}
							JOINT Right_Sleeve
							{
								OFFSET -6.592125 -0.646545 0.805568
								CHANNELS 3 Xrotation Yrotation Zrotation
								End Site
								{
									OFFSET 0.000179 20.275787 -0.000000
								}
							}
						}
					}
				}
				JOINT Bind_Right_JacketString
				{
					OFFSET -3.534800 11.969597 7.200700
					CHANNELS 3 Xrotation Yrotation Zrotation
					JOINT Bind_Right_JacketString1
					{
						OFFSET -0.319900 -6.102600 2.794100
						CHANNELS 3 Xrotation Yrotation Zrotation
						End Site
						{
							OFFSET 0.000000 6.719452 0.000000
						}
					}
				}
				JOINT Bind_Left_JacketString
				{
					OFFSET 2.904800 11.969597 7.200700
					CHANNELS 3 Xrotation Yrotation Zrotation
					JOINT Bind_Left_JacketString1
					{
						OFFSET 0.364800 -5.904503 3.186800
						CHANNELS 3 Xrotation Yrotation Zrotation
						End Site
						{
							OFFSET 0.000000 6.719513 0.000000
						}
					}
				}
				JOINT HairE
				{
					OFFSET 5.915200 17.612701 -11.592200
					CHANNELS 3 Xrotation Yrotation Zrotation
					JOINT HairE1
					{
						OFFSET 0.289200 -7.171898 -1.284500
						CHANNELS 3 Xrotation Yrotation Zrotation
						End Site
						{
							OFFSET 0.000000 7.291756 0.000000
						}
					}
				}
				JOINT HairF
				{
					OFFSET -0.864800 17.612701 -11.592200
					CHANNELS 3 Xrotation Yrotation Zrotation
					JOINT HairF1
					{
						OFFSET 0.000000 -14.087097 -2.127501
						CHANNELS 3 Xrotation Yrotation Zrotation
						End Site
						{
							OFFSET 0.000000 14.246841 0.000000
						}
					}
				}
				JOINT HairG
				{
					OFFSET -8.087700 17.612701 -11.592200
					CHANNELS 3 Xrotation Yrotation Zrotation
					JOINT HairG1
					{
						OFFSET -0.293600 -6.081398 -0.910100
						CHANNELS 3 Xrotation Yrotation Zrotation
						End Site
						{
							OFFSET 0.000000 6.156120 0.000000
						}
					}
				}
			}
		}
	}
	JOINT Pouch
	{
		OFFSET 0.000000 4.394501 10.847300
		CHANNELS 3 Xrotation Yrotation Zrotation
		End Site
		{
			OFFSET 0.000000 21.880577 0.000000
		}
	}
	JOINT Bag
	{
		OFFSET -13.229000 4.813004 -0.593300
		CHANNELS 3 Xrotation Yrotation Zrotation
		End Site
		{
			OFFSET 0.000000 21.880577 0.000000
		}
	}
	JOINT OccupyGuyFacialAnim_Joint
	{
		OFFSET 1.000000 -70.206398 -1.655000
		CHANNELS 3 Xrotation Yrotation Zrotation
		End Site
		{
			OFFSET 0.000000 21.880577 0.000000
		}
	}
}
MOTION
Frames: 5
Frame Time: 0.033333
0.102558 41.399773 -1.419678 -19.611314 4.225159 4.568804 -0.000001 0.000000 -0.000000 -70.206237 12.075624 5.188426 85.447231 -6.684464 -4.458514 4.660843 -0.197151 15.009843 -0.000000 -0.000000 0.000000 -0.000000 -0.000001 -0.000000 -72.341600 2.414950 -13.430231 86.960015 -1.763479 3.214222 2.607792 0.118379 -4.485616 0.000000 0.000001 0.000000 -0.000000 0.000000 -0.000000 5.052148 5.640888 0.369111 10.053897 11.719395 0.829590 10.053897 11.719385 0.829592 8.977130 -5.856903 6.951697 -18.562759 -18.345178 7.817428 0.000000 -0.000001 0.000001 0.000000 -0.000001 0.000001 0.000000 -0.000001 0.000001 0.000000 -0.000001 0.000001 0.000000 0.000000 0.000003 0.000000 -0.000001 0.000001 0.000000 0.000000 0.000003 0.000000 -0.000001 0.000001 0.000000 -0.000001 0.000001 3.352887 -8.529987 0.145635 29.546971 33.726368 -59.734936 26.594069 -67.420326 9.957326 15.808215 -8.259831 -3.520459 5.897576 -23.826220 -5.434837 20.088555 29.497391 -3.379534 -0.000000 -0.000002 -0.000000 -6.792268 -6.033049 -68.960397 -4.074098 -4.480487 -78.855811 0.000002 0.000002 0.000000 -7.782435 1.226384 -72.837376 -1.962343 -1.927877 -84.145178 0.000001 0.000001 0.000001 -7.217047 3.603942 -75.165446 -2.234009 1.048828 -74.377338 -0.000002 0.000000 -0.000002 -9.683983 10.614055 -76.142744 1.288741 3.384757 -54.160432 -0.000001 -0.000001 0.000001 0.000000 0.000000 -0.000001 0.045734 42.459444 10.601005 -17.307554 7.411541 63.908345 -47.320353 36.525949 45.477739 -57.950713 16.643033 7.035239 29.910915 11.411368 4.916678 0.686234 -9.240384 -4.247750 0.000003 -0.000005 0.000003 2.347932 -1.604823 48.453068 -6.806003 1.844130 87.324392 0.000001 -0.000001 0.000000 -0.734566 -1.568576 58.577280 -6.498351 3.438568 85.211603 0.000002 0.000000 -0.000002 -3.407217 -6.148620 66.263695 -3.266142 6.036527 81.330122 0.000002 -0.000002 -0.000001 -6.060894 -11.666650 66.492800 -3.324358 8.415514 83.501037 -0.000001 -0.000000 -0.000003 -0.000000 -0.000001 0.000000 0.000000 0.000003 -0.000000 0.000000 -0.000001 0.000000 0.000000 0.000003 -0.000000 0.000000 0.000003 -0.000000 0.000000 0.000003 -0.000000 0.000000 -0.000001 0.000000 0.000000 0.000003 -0.000000 0.000000 0.000003 -0.000000 0.000000 0.000003 -0.000000 0.000000 -0.000001 0.000000 -0.000001 0.000000 -0.000000 -0.000001 0.000000 -0.000000 -0.000001 0.000000 -0.000000 
0.090199 41.397598 -1.409422 -19.492177 4.365821 4.669383 -0.000001 -0.000000 -0.000000 -70.287052 12.189431 5.082735 85.395717 -6.719517 -4.456585 4.695051 -0.194870 15.036644 0.000000 -0.000000 0.000000 -0.000000 0.000000 0.000002 -72.477296 2.517596 -13.499387 87.048937 -1.962179 3.205095 2.509351 0.123467 -4.422737 -0.000000 0.000000 0.000000 -0.000000 -0.000000 -0.000001 5.065310 5.671641 0.421263 10.073271 11.795929 0.942586 10.073279 11.795929 0.942585 9.018603 -5.792279 6.977224 -18.620836 -18.184513 7.888341 -0.000000 0.000001 -0.000002 -0.000000 0.000001 -0.000002 -0.000000 0.000001 -0.000003 -0.000000 0.000001 -0.000002 0.000000 -0.000000 -0.000002 -0.000000 0.000001 -0.000002 0.000000 -0.000000 -0.000002 -0.000000 0.000001 -0.000002 -0.000000 0.000001 -0.000002 3.374414 -8.685783 0.154109 31.577296 35.109320 -60.474591 28.022429 -69.212472 11.574358 16.426670 -7.643170 -4.132211 5.897896 -23.825833 -5.434340 20.090721 29.496008 -3.381687 -0.000001 0.000001 -0.000004 -6.792253 -6.032882 -68.960138 -4.074105 -4.480506 -78.855647 0.000001 0.000002 0.000002 -7.781781 1.226223 -72.837438 -1.961811 -1.927852 -84.145410 0.000001 0.000000 -0.000001 -7.216928 3.603884 -75.165460 -2.233634 1.050873 -74.377468 -0.000001 0.000001 0.000000 -9.683870 10.613984 -76.142662 1.288769 3.384779 -54.160484 -0.000001 0.000000 0.000001 0.000000 -0.000001 0.000002 0.004450 42.358320 10.639684 -16.364177 6.851164 64.446250 -47.675424 36.765474 45.987005 -58.076812 16.390883 6.838041 29.911625 11.411341 4.916241 0.686243 -9.240356 -4.247768 0.000001 -0.000001 0.000002 2.347860 -1.604836 48.450948 -6.806500 1.844122 87.324358 -0.000000 0.000001 -0.000001 -0.734574 -1.568558 58.577301 -6.498891 3.438670 85.211555 0.000001 0.000000 0.000001 -3.407587 -6.148442 66.263640 -3.265767 6.036426 81.330081 0.000003 -0.000001 -0.000004 -6.060958 -11.666620 66.492759 -3.302395 8.413027 83.499206 -0.000001 0.000002 0.000001 -0.000001 -0.000001 0.000001 0.000000 0.000000 -0.000000 0.000000 -0.000001 -0.000000 0.000000 0.000000 0.000000 0.000000 0.000000 0.000000 0.000000 0.000000 -0.000000 0.000000 -0.000001 -0.000000 0.000000 0.000000 0.000000 0.000000 0.000000 0.000000 0.000000 0.000000 -0.000000 0.000000 -0.000001 -0.000000 -0.000001 -0.000000 -0.000000 -0.000001 -0.000000 -0.000000 -0.000001 -0.000000 -0.000000 
0.077751 41.395859 -1.401571 -19.417833 4.461118 4.750175 0.000002 -0.000000 0.000000 -70.331421 12.271897 5.003011 85.359073 -6.731242 -4.453184 4.715505 -0.193784 15.041385 0.000000 -0.000000 -0.000000 0.000000 -0.000001 -0.000000 -72.568240 2.584712 -13.541926 87.124411 -2.149652 3.198989 2.412907 0.130417 -4.381112 0.000000 0.000001 0.000000 -0.000000 -0.000000 -0.000001 5.069217 5.667836 0.470911 10.074485 11.800709 1.052085 10.074480 11.800728 1.052087 9.026340 -5.720891 7.011212 -18.604674 -17.999616 7.967593 -0.000000 0.000001 0.000001 -0.000000 0.000001 0.000001 -0.000000 0.000001 -0.000000 -0.000000 0.000001 -0.000001 -0.000000 0.000000 -0.000001 -0.000000 0.000001 -0.000001 -0.000000 0.000000 -0.000001 -0.000000 0.000001 0.000001 -0.000000 0.000001 0.000001 3.413486 -8.911278 0.167856 33.210176 36.201276 -61.037302 30.139627 -72.054773 14.015659 17.005448 -6.036147 -4.567443 5.898276 -23.825411 -5.433838 20.092637 29.494386 -3.383667 -0.000003 0.000002 0.000002 -6.792241 -6.032682 -68.959912 -4.074136 -4.480543 -78.855511 -0.000001 0.000000 -0.000002 -7.781151 1.226072 -72.837472 -1.961291 -1.927825 -84.145656 0.000003 -0.000001 -0.000001 -7.216798 3.603833 -75.165440 -2.233118 1.053270 -74.377591 -0.000000 0.000001 -0.000002 -9.683745 10.613918 -76.142560 1.288786 3.384783 -54.160542 0.000000 -0.000000 -0.000001 0.000001 -0.000000 0.000002 0.001997 42.255932 10.570313 -15.912155 6.125964 64.508241 -48.566750 37.155146 46.610372 -58.223203 15.547546 6.897003 29.912161 11.411335 4.915892 0.686276 -9.240359 -4.247786 -0.000001 0.000001 -0.000000 2.347768 -1.604837 48.448748 -6.806930 1.844110 87.324385 -0.000003 -0.000001 -0.000002 -0.734575 -1.568543 58.577280 -6.499339 3.438792 85.211569 0.000001 0.000001 0.000001 -3.407906 -6.148284 66.263565 -3.265470 6.036363 81.330129 -0.000001 -0.000000 -0.000005 -6.061010 -11.666574 66.492732 -3.281448 8.410662 83.497444 -0.000003 0.000001 0.000004 -0.000000 -0.000000 0.000001 -0.000000 0.000002 0.000000 0.000000 -0.000002 0.000000 -0.000000 0.000002 -0.000000 -0.000000 0.000002 -0.000000 -0.000000 0.000002 0.000000 0.000000 -0.000002 0.000000 -0.000000 0.000002 -0.000000 -0.000000 0.000002 -0.000000 -0.000000 0.000002 0.000000 0.000000 -0.000002 0.000000 0.000002 -0.000000 0.000000 0.000002 -0.000000 0.000000 0.000002 -0.000000 0.000000 
0.065249 41.394646 -1.396576 -19.396743 4.500366 4.810700 0.000001 -0.000000 0.000000 -70.330875 12.318675 4.952139 85.338535 -6.712558 -4.451017 4.719343 -0.194094 15.020730 -0.000000 0.000000 0.000000 0.000000 0.000001 0.000000 -72.607295 2.611080 -13.554730 87.184168 -2.319588 3.194923 2.320385 0.137248 -4.367083 -0.000000 0.000001 0.000000 -0.000000 -0.000000 -0.000001 5.059606 5.614571 0.517815 10.049023 11.703667 1.159184 10.049019 11.703673 1.159185 8.953328 -5.688685 7.046257 -18.603227 -17.890929 7.969466 -0.000000 0.000000 0.000002 -0.000000 0.000000 0.000002 -0.000000 0.000000 0.000002 -0.000000 0.000000 0.000001 0.000000 0.000000 0.000001 -0.000000 0.000000 0.000001 0.000000 0.000000 0.000001 -0.000000 0.000000 0.000002 -0.000000 0.000000 0.000002 3.466369 -9.202170 0.185671 33.863870 36.599879 -61.396161 32.071163 -74.242128 16.630717 17.558261 -4.685123 -4.923269 5.897963 -23.824796 -5.433696 20.094104 29.492395 -3.385341 0.000000 0.000001 -0.000001 -6.792229 -6.032456 -68.959707 -4.074156 -4.480564 -78.855381 0.000000 0.000001 0.000000 -7.780514 1.225918 -72.837506 -1.960797 -1.927806 -84.145861 0.000002 0.000001 -0.000001 -7.216638 3.603771 -75.165446 -2.232516 1.055813 -74.377700 0.000000 0.000001 -0.000003 -9.683595 10.613836 -76.142491 1.288813 3.384795 -54.160607 0.000000 -0.000001 -0.000001 -0.000001 -0.000000 -0.000001 -0.013834 42.132152 10.538164 -15.817383 5.434728 64.142108 -49.591674 37.633161 47.340389 -58.302269 14.803643 6.949789 29.912588 11.411329 4.915622 0.686280 -9.240356 -4.247812 -0.000002 -0.000001 0.000001 2.347709 -1.604862 48.446569 -6.807294 1.844141 87.324392 -0.000002 0.000001 0.000002 -0.734585 -1.568517 58.577280 -6.499711 3.438885 85.211582 0.000001 -0.000001 -0.000001 -3.408181 -6.148157 66.263538 -3.265230 6.036293 81.330129 -0.000001 0.000001 -0.000001 -6.061072 -11.666546 66.492711 -3.261566 8.408422 83.495716 -0.000001 0.000001 0.000002 0.000002 0.000001 0.000001 -0.000000 -0.000003 -0.000000 -0.000000 -0.000001 -0.000000 -0.000000 -0.000003 0.000000 -0.000000 -0.000003 0.000000 -0.000000 -0.000003 -0.000000 -0.000000 -0.000001 -0.000000 -0.000000 -0.000003 0.000000 -0.000000 -0.000003 0.000000 -0.000000 -0.000003 -0.000000 -0.000000 -0.000001 -0.000000 0.000001 -0.000000 0.000000 0.000001 -0.000000 0.000000 0.000001 -0.000000 0.000000 
0.052961 41.394379 -1.396648 -19.469213 4.459778 4.835038 0.000001 0.000000 0.000000 -70.252942 12.307777 4.947262 85.344949 -6.653764 -4.444639 4.699781 -0.198127 14.961654 -0.000000 -0.000000 0.000000 0.000000 0.000001 -0.000000 -72.552216 2.572508 -13.522886 87.218196 -2.462519 3.190796 2.238126 0.143355 -4.390582 -0.000000 0.000001 0.000000 0.000000 -0.000000 -0.000001 5.033058 5.493947 0.561422 9.990536 11.467095 1.263107 9.990538 11.467095 1.263106 8.780003 -5.683721 7.061358 -18.756166 -17.845498 7.893188 0.000000 -0.000000 -0.000001 0.000000 -0.000000 -0.000001 0.000000 -0.000000 -0.000002 0.000000 -0.000000 -0.000001 0.000000 -0.000001 0.000001 0.000000 -0.000000 -0.000001 0.000000 -0.000001 0.000001 0.000000 -0.000000 -0.000001 0.000000 -0.000000 -0.000001 3.530497 -9.554277 0.207344 33.720193 36.455585 -61.677305 33.209677 -75.234650 18.835095 18.156948 -4.036484 -5.516823 5.896663 -23.823927 -5.434124 20.095366 29.490469 -3.386698 0.000004 -0.000001 -0.000001 -6.792213 -6.032193 -68.959495 -4.074158 -4.480589 -78.855258 0.000002 0.000001 -0.000002 -7.779909 1.225775 -72.837554 -1.960298 -1.927777 -84.146107 0.000002 0.000000 0.000001 -7.216473 3.603709 -75.165433 -2.231807 1.058530 -74.377837 -0.000002 0.000000 -0.000004 -9.683431 10.613748 -76.142402 1.288838 3.384798 -54.160671 -0.000000 0.000000 0.000003 -0.000000 0.000001 -0.000005 -0.097369 41.990357 10.694666 -15.798962 4.892485 63.453038 -50.374797 38.007646 48.026509 -58.452848 14.513565 6.865453 29.912909 11.411314 4.915437 0.686289 -9.240341 -4.247827 0.000001 -0.000004 0.000004 2.347616 -1.604886 48.444373 -6.807598 1.844118 87.324351 -0.000000 -0.000003 -0.000002 -0.734581 -1.568517 58.577287 -6.499983 3.438990 85.211562 -0.000001 -0.000000 0.000001 -3.408417 -6.148042 66.263483 -3.265056 6.036229 81.330116 0.000001 -0.000000 -0.000005 -6.061132 -11.666519 66.492684 -3.242890 8.406312 83.494118 -0.000001 -0.000002 0.000000 0.000003 0.000000 0.000001 0.000000 0.000002 -0.000000 0.000000 0.000002 0.000000 0.000000 0.000002 -0.000000 0.000000 0.000002 -0.000000 0.000000 0.000002 -0.000000 0.000000 0.000002 0.000000 0.000000 0.000002 -0.000000 0.000000 0.000002 -0.000000 0.000000 0.000002 -0.000000 0.000000 0.000002 0.000000 0.000001 0.000000 0.000000 0.000001 0.000000 0.000000 0.000001 0.000000 0.000000 
